<?xml version="1.0" encoding="utf-8"?>
<!-- Generator: Adobe Illustrator 25.4.1, SVG Export Plug-In . SVG Version: 6.00 Build 0)  -->
<svg version="1.1" id="Layer_1" xmlns:xodm="http://www.corel.com/coreldraw/odm/2003"
	 xmlns="http://www.w3.org/2000/svg" xmlns:xlink="http://www.w3.org/1999/xlink" x="0px" y="0px" viewBox="0 0 426 142.4"
	 style="enable-background:new 0 0 426 142.4;" xml:space="preserve">
<style type="text/css">
	.st0{fill-rule:evenodd;clip-rule:evenodd;fill:#0779E4;}
	.st1{fill-rule:evenodd;clip-rule:evenodd;fill:#FF9700;}
	.st2{fill:#0779E4;}
</style>
<g id="Layer_x0020_1">
	<path class="st0" d="M126.7,70.2c-2.4-5.1-7.8-8.8-13.5-8.8c-11.7,0-14.6,9.1-14.6,19.4c0,10.4,2.7,19.5,14.6,19.5
		c9,0,13.5-5.4,13.5-14.3V70.2L126.7,70.2z M126.7,41.8v-4.6c0-3.2,2.6-5.8,5.8-5.8c3.2,0,5.8,2.6,5.8,5.8v4.6v9.6V86
		c0,15.6-9.5,25.2-25.1,25.2c-18.8,0-26.1-13-26.1-30.4c0-17.3,6.8-30.3,25.7-30.3c4.9,0,10,1.6,14,4.7v-3.8L126.7,41.8L126.7,41.8z
		"/>
	<path class="st0" d="M70.5,74.4c-0.5-7.8-4-13-13-13c-8.7,0-13.2,5.2-14.3,13H70.5L70.5,74.4z M43,85.1c0.7,8.9,6,15.1,15.7,15.1
		c5.3,0,8.8-1.6,12.9-4.7l0.1-0.1c1.1-0.7,1.9-1,3.2-1c3,0,5.4,2.4,5.4,5.4c0,1.8-0.7,2.9-1.9,4.1c-4.9,4.9-13,7.2-19.8,7.2
		c-19.1,0-27.4-12.1-27.4-30.4c0-16.9,7.9-30.3,26.3-30.3c15.3,0,24.5,10.1,24.5,25c0,4.7-0.7,9.6-6.7,9.6L43,85.1L43,85.1z"/>
	<path class="st0" d="M238.3,51.2c3.2,0,5.8,2.6,5.8,5.8v30.7c0,8.6,3.4,12.2,12.3,12.2c8.9,0,12.3-3.6,12.3-12.2V57
		c0-3.3,2.7-5.8,5.9-5.8c3.2,0,5.7,2.6,5.7,5.8v30.7c0,15.8-7.7,23.4-23.9,23.4c-16.2,0-23.9-7.7-23.9-23.4V57
		C232.5,53.8,235,51.2,238.3,51.2L238.3,51.2z"/>
	<path class="st0" d="M202,53.7c0-13.5,8.6-22.3,22.4-22.3c3.1,0,5.6,2.4,5.6,5.6c0,3.1-2.4,5.6-5.6,5.6c-7.4,0-10.8,3.9-10.8,11.1
		v4.9h8.7c3.1,0,5.6,2.4,5.6,5.6c0,3.1-2.4,5.6-5.6,5.6h-8.7v13.8v8v0.6v10.3v0.6v1.8v0.6c0,3.2-2.6,5.8-5.8,5.8
		c-3.2,0-5.8-2.6-5.8-5.8v-0.6V103v-0.6V92.1v-0.6v-8L202,53.7L202,53.7z"/>
	<path class="st0" d="M382.9,70.2c-2.4-5.1-7.8-8.8-13.5-8.8c-11.7,0-14.6,9.1-14.6,19.4c0,10.4,2.7,19.5,14.6,19.5
		c9,0,13.5-5.4,13.5-14.3V70.2L382.9,70.2z M382.9,41.8v-4.6c0-3.2,2.6-5.8,5.8-5.8c3.2,0,5.8,2.6,5.8,5.8v4.6v9.6V86
		c0,15.6-9.5,25.2-25.1,25.2c-18.8,0-26.1-13-26.1-30.4c0-17.3,6.8-30.3,25.7-30.3c4.9,0,10,1.6,14,4.7v-3.8L382.9,41.8L382.9,41.8z
		"/>
	<path class="st0" d="M294.1,111.2c3.2,0,5.8-2.6,5.8-5.8V74.7c0-8.6,3.4-12.2,12.3-12.2c8.9,0,12.3,3.6,12.3,12.2v30.7
		c0,3.3,2.7,5.8,5.9,5.8c3.2,0,5.7-2.6,5.7-5.8V74.7c0-15.8-7.7-23.4-23.9-23.4c-16.2,0-23.9,7.7-23.9,23.4v30.7
		C288.3,108.6,290.9,111.2,294.1,111.2L294.1,111.2z"/>
	<path class="st1" d="M157.5,86.8v0.9c0,8.6,3.4,12.2,12.3,12.2c8.9,0,12.3-3.6,12.3-12.2v-1.1v-1c0-3.3,2.7-5.8,5.9-5.8
		c3.2,0,5.7,2.6,5.7,5.8v0.5v1.7v1.4h0c-0.5,14.8-8.2,22-23.9,22c-16.1,0-23.8-7.6-23.9-23.1l0,0v-0.3v-2.1v-0.1
		c0-3.2,2.6-5.8,5.8-5.8c3.2,0,5.8,2.6,5.8,5.8L157.5,86.8L157.5,86.8z"/>
	<path class="st2" d="M157.5,68.4c0,3.2-2.6,5.8-5.8,5.8c-3.2,0-5.8-2.6-5.8-5.8v-1.5v-1.6v-1.5c0-3.2,2.6-5.8,5.8-5.8
		c3.2,0,5.8,2.6,5.8,5.8v1.5v1.6C157.5,66.9,157.5,68.4,157.5,68.4z"/>
	<path class="st2" d="M193.7,57c0-3.2-2.6-5.8-5.8-5.8c-3.2,0-5.8,2.6-5.8,5.8v2.6v0.5v8.3c0,3.2,2.6,5.8,5.8,5.8
		c3.2,0,5.8-2.6,5.8-5.8v-8.3v-0.5C193.7,59.7,193.7,57,193.7,57z"/>
</g>
</svg>
